# xmcd
#
# Track frame offsets:
#	150
#	16350
#	33980
#	49460
#	63137
#	78782
#	90482
#	111732
#	128600
#	141985
#	158322
#	177122
#	193762
#
# Disc length: 2807
#
# Revision: 1
# Processed by: cddbd v1.5.1PL0 Copyright (c) Steve Scherf et al.
# Submitted via: VisiTrax 2.9.5.180 - For more info visit www.synapsa.com
# Normalized: r0:DSETVAR1
#
DISCID=a30af50d
DTITLE=Various Artist - CDX 225 October 1999
DYEAR=1999
DGENRE=
TTITLE0=Kenny Rogers - Buy me a rose
TTITLE1=Phil Vassar - Carlene
TTITLE2=Susan Ashton - Closer
TTITLE3=Sisters Wade - Don't let me down
TTITLE4=Steve Holy - Don't make me beg
TTITLE5=Sherrie Austin - Little bird
TTITLE6=Tim McGraw - My best friend
TTITLE7=Del McCoury Band - Nashville cats
TTITLE8=Tim Wilson - Nashville name-dropping school
TTITLE9=Lonestar - Smile
TTITLE10=George Jones - The cold hard truth
TTITLE11=Tyler England - Too many highways
TTITLE12=Jon Randall - Willin
EXTD=
EXTT0=
EXTT1=
EXTT2=
EXTT3=
EXTT4=
EXTT5=
EXTT6=
EXTT7=
EXTT8=
EXTT9=
EXTT10=
EXTT11=
EXTT12=
PLAYORDER=
